<?xml version="1.0" encoding="UTF-8"?>
<svg version="1.1" xmlns="http://www.w3.org/2000/svg" width="512" height="512">
<path d="M0 0 C1.39328639 -0.00389777 2.78657161 -0.00823462 4.17985535 -0.01298523 C7.08877425 -0.02040823 9.99757172 -0.02018536 12.90649414 -0.01489258 C16.60119497 -0.00911026 20.29539247 -0.02601775 23.99001026 -0.04923725 C26.86511554 -0.06410035 29.74010319 -0.06482928 32.6152401 -0.06172752 C34.62899874 -0.06247819 36.64273936 -0.07624859 38.65644836 -0.09040833 C49.77734396 -0.03505333 59.77330245 1.8191204 69.66796875 6.98828125 C70.34754639 7.33785889 71.02712402 7.68743652 71.72729492 8.04760742 C77.59229076 11.15752617 82.65612893 14.79483939 87.54296875 19.30078125 C88.43371094 20.1 89.32445312 20.89921875 90.2421875 21.72265625 C106.2792353 36.84266226 115.27098438 56.17471991 120.54296875 77.30078125 C120.91421875 78.75291016 120.91421875 78.75291016 121.29296875 80.234375 C123.47840421 90.6910766 122.71853776 101.67480464 122.54296875 112.30078125 C123.41417358 112.36555664 123.41417358 112.36555664 124.30297852 112.43164062 C136.20988677 113.5017039 145.58013891 119.50050584 153.54296875 128.30078125 C155.91590176 131.49144804 157.89343078 134.68310296 159.54296875 138.30078125 C159.79654144 138.85632187 160.05011414 139.41186249 160.31137085 139.98423767 C163.27733574 147.49153259 162.92290488 155.1231924 162.8359375 163.0546875 C162.83033203 164.56639685 162.82606643 166.07811171 162.82307434 167.58982849 C162.8117003 171.54036902 162.78229876 175.49057092 162.7489624 179.440979 C162.71809962 183.48339255 162.70453461 187.5258616 162.68945312 191.56835938 C162.6574206 199.47932088 162.60631622 207.39000877 162.54296875 215.30078125 C163.29991531 215.29520706 164.05686188 215.28963287 164.83674622 215.28388977 C165.82881577 215.27955429 166.82088531 215.27521881 167.84301758 215.27075195 C168.82683914 215.26517776 169.81066071 215.25960358 170.82429504 215.25386047 C180.39852702 215.41909928 188.13645513 219.59530388 195.29296875 225.61328125 C200.18258247 231.4536532 202.65265064 237.65814617 202.69013977 245.26344299 C202.70087273 246.76239357 202.70087273 246.76239357 202.71182251 248.29162598 C202.71585587 249.92726501 202.71585587 249.92726501 202.7199707 251.59594727 C202.7298275 253.3259623 202.7298275 253.3259623 202.73988342 255.09092712 C202.75961118 258.91218125 202.77127923 262.73339604 202.78125 266.5546875 C202.78532553 267.86119703 202.78940105 269.16770657 202.79360008 270.5138073 C202.81264527 276.71868235 202.82687471 282.9235456 202.83521205 289.12844425 C202.84496624 296.26834847 202.87124052 303.40794117 202.91171294 310.54773575 C202.94198582 316.08000453 202.95669165 321.61218461 202.95999306 327.14453453 C202.96233191 330.44201622 202.97314602 333.73909108 202.99645424 337.03650093 C203.02089884 340.72453438 203.01987007 344.41176322 203.01293945 348.09985352 C203.02574951 349.17610992 203.03855957 350.25236633 203.05175781 351.36123657 C202.97220377 363.03618162 199.25841394 371.6456344 191.54296875 380.30078125 C191.0428125 380.90535156 190.54265625 381.50992187 190.02734375 382.1328125 C182.79346066 390.22526252 171.85886109 395.45501785 161.54296875 398.30078125 C161.48109375 399.10515625 161.41921875 399.90953125 161.35546875 400.73828125 C159.06164813 410.79580245 151.85653673 419.55571773 143.5390625 425.41796875 C134.01069908 431.16599274 126.56358392 432.62651372 115.54296875 432.30078125 C115.54296875 430.65078125 115.54296875 429.00078125 115.54296875 427.30078125 C110.59296875 427.30078125 105.64296875 427.30078125 100.54296875 427.30078125 C100.56915283 428.74735107 100.59533691 430.1939209 100.62231445 431.68432617 C100.7135405 437.10571525 100.77047968 442.52703797 100.81762695 447.94897461 C100.84260721 450.2853541 100.8766034 452.62165677 100.92016602 454.95776367 C101.2592467 473.62315822 100.30236976 486.8735624 86.9609375 500.97265625 C79.5949548 507.92643067 69.88471338 512.41479686 59.77718449 512.43779564 C58.59288288 512.44287018 57.40858128 512.44794472 56.18839175 512.45317304 C54.2347865 512.45391968 54.2347865 512.45391968 52.24171448 512.4546814 C50.8450939 512.45869715 49.44847448 512.46313556 48.05185646 512.46796095 C44.20945756 512.4799201 40.36707122 512.4855734 36.52465737 512.49014211 C32.38196434 512.49610083 28.23928631 512.50771013 24.09660339 512.51843262 C14.08848545 512.54295242 4.08036255 512.55758418 -5.92777619 512.57049268 C-8.75534502 512.57420525 -11.58291335 512.57817844 -14.41048169 512.58224535 C-31.97481087 512.60748508 -49.53914084 512.62953505 -67.10348415 512.6419735 C-71.17177267 512.64490313 -75.24006116 512.6478648 -79.30834961 512.65087891 C-80.31948659 512.65162496 -81.33062357 512.65237101 -82.37240107 512.65313967 C-98.74312913 512.66578655 -115.11374842 512.69900069 -131.48442566 512.74068074 C-148.29807029 512.783137 -165.11165931 512.80667289 -181.9253574 512.81189406 C-191.36304178 512.81530424 -200.80055625 512.82701281 -210.23818779 512.8599968 C-218.27794345 512.88804937 -226.31749436 512.89897389 -234.35729515 512.88780133 C-238.45621148 512.88262775 -242.5546994 512.88541607 -246.65355301 512.91026688 C-250.41375607 512.93287314 -254.17322582 512.93193265 -257.93344272 512.913063 C-259.92191869 512.90897027 -261.91039992 512.92932446 -263.8987636 512.95084989 C-277.70931431 512.8299625 -288.1939452 508.11982296 -298.12890625 498.71875 C-305.02099141 491.4181134 -309.57052008 481.72357654 -309.59404564 471.69117069 C-309.59912018 470.54170304 -309.60419472 469.39223539 -309.60942304 468.20793539 C-309.6099208 466.94444138 -309.61041856 465.68094736 -309.6109314 464.37916565 C-309.6149473 463.02379303 -309.61938574 461.66842162 -309.62421095 460.31305164 C-309.63616842 456.58466851 -309.641823 452.85629831 -309.64639211 449.12789977 C-309.65235147 445.10790702 -309.66396062 441.08792971 -309.67468262 437.06794739 C-309.69920106 427.35645818 -309.71383404 417.64496386 -309.72674268 407.93345323 C-309.73045537 405.18957488 -309.73442855 402.44569703 -309.73849535 399.70181918 C-309.76373535 382.65649879 -309.78578482 365.61117758 -309.7982235 348.56584263 C-309.80115312 344.61786966 -309.80411479 340.66989673 -309.80712891 336.72192383 C-309.80787496 335.740693 -309.80862101 334.75946216 -309.80938967 333.74849706 C-309.82203594 317.86275685 -309.85524933 301.97712876 -309.89693074 286.09144092 C-309.93939065 269.77500172 -309.96292331 253.45861984 -309.96814406 237.14212555 C-309.97155384 227.98389566 -309.98325768 218.8258409 -310.0162468 209.66766548 C-310.04430442 201.86579391 -310.0552217 194.06413336 -310.04405133 186.26221526 C-310.03887901 182.2848099 -310.04165768 178.30784604 -310.06651688 174.33050537 C-310.08913351 170.68132047 -310.0881749 167.03289102 -310.069313 163.38369178 C-310.06522298 161.45486365 -310.08556686 159.52603002 -310.10709989 157.59731776 C-309.98378529 143.91578973 -305.17850322 133.46075657 -295.875 123.62890625 C-288.84679743 116.99400942 -279.21967634 112.1779347 -269.5 112.1953125 C-268.0778418 112.17307617 -268.0778418 112.17307617 -266.62695312 112.15039062 C-264.65053675 112.12579867 -262.67378247 112.12035762 -260.69726562 112.13476562 C-254.59782231 111.99848829 -251.37514315 111.21200259 -247.0378418 106.86694336 C-237.51782617 97.4351441 -221.29376219 92.22166631 -208.20483398 92.13964844 C-206.34150673 92.12523712 -206.34150673 92.12523712 -204.4405365 92.11053467 C-203.09056789 92.10568371 -201.74059712 92.10140562 -200.390625 92.09765625 C-199.36084376 92.09341518 -199.36084376 92.09341518 -198.31025887 92.08908844 C-194.67192327 92.074125 -191.03362698 92.06487956 -187.39526367 92.06054688 C-183.66909336 92.05508877 -179.94329336 92.03110957 -176.21723843 92.00257492 C-173.32498694 91.9837807 -170.43282133 91.97873396 -167.54051399 91.977211 C-166.1688238 91.97421793 -164.79713386 91.96630526 -163.42550468 91.95302582 C-151.53584877 91.84619947 -140.93946768 93.47044414 -130.33203125 98.98828125 C-129.64230225 99.33060791 -128.95257324 99.67293457 -128.24194336 100.02563477 C-124.13516815 102.14440459 -121.23386071 104.37261801 -118.01953125 107.73828125 C-110.41338866 114.52142063 -97.03601776 112.458424 -87.45703125 112.30078125 C-87.47797852 111.7087793 -87.49892578 111.11677734 -87.52050781 110.50683594 C-88.4479747 80.04130977 -81.52965022 50.2953329 -60.45703125 27.30078125 C-59.62429687 26.37523438 -58.7915625 25.4496875 -57.93359375 24.49609375 C-42.05811422 7.68950105 -23.01829286 -0.01594364 0 0 Z " fill="#282625" transform="translate(309.45703125,-0.30078125)"/>
<path d="M0 0 C7.65707858 -0.86683908 12.77768921 1.5891334 19 6 C25.31988173 11.72904136 30.25498486 18.55034134 32 27 C32.08867519 28.93036662 32.12198606 30.86355796 32.12025452 32.79595947 C32.12231651 34.57117981 32.12231651 34.57117981 32.12442017 36.38226318 C32.12082489 37.67698547 32.11722961 38.97170776 32.11352539 40.30566406 C32.11324326 41.68554685 32.11340176 43.0654298 32.1139679 44.4453125 C32.11425485 48.18877105 32.10837457 51.93219758 32.10139394 55.67564869 C32.09514346 59.58875682 32.09455526 63.50186568 32.09336853 67.41497803 C32.09026022 74.82387226 32.08205356 82.23275174 32.07201904 89.64163947 C32.06084239 98.07687805 32.05534354 106.51211733 32.05032361 114.94736147 C32.03987054 132.29824951 32.02228076 149.6491232 32 167 C30.59735404 167.48457304 29.19314978 167.9646365 27.78833008 168.44287109 C27.00653885 168.71070404 26.22474762 168.97853699 25.41926575 169.25448608 C21.56742608 170.44145783 17.66845654 171.04354909 13.6875 171.625 C12.92244141 171.74617187 12.15738281 171.86734375 11.36914062 171.9921875 C0.38517439 173.66662809 -10.54074845 174.14670325 -21.64038086 174.1418457 C-23.64719766 174.14717901 -25.65401445 174.1525183 -27.66083062 174.15808237 C-29.79324013 174.16323909 -31.9256436 174.16617959 -34.05805779 174.16866493 C-38.52788418 174.1746409 -42.9976337 174.19124044 -47.46742249 174.21000671 C-49.00574776 174.2163419 -50.54407307 174.22266755 -52.08239841 174.22898388 C-53.23699281 174.2337326 -53.23699281 174.2337326 -54.41491234 174.23857725 C-64.80092781 174.28045114 -75.18690362 174.3136317 -85.57299805 174.32592773 C-92.60756686 174.33434071 -99.64194053 174.3569406 -106.67641169 174.3952834 C-110.38623528 174.41491669 -114.09576809 174.42749103 -117.8056469 174.42244911 C-121.94744205 174.41688699 -126.08851761 174.44234668 -130.23022461 174.4699707 C-132.03938858 174.46006859 -132.03938858 174.46006859 -133.88510132 174.44996643 C-150.28148198 174.62852581 -162.56036979 180.69335146 -174.578125 191.4609375 C-176.99998384 193.73488155 -176.99998384 193.73488155 -177.93624878 195.9704895 C-179.3520154 198.66097954 -180.5530775 200.16310548 -183 202 C-188.80297257 203.16388868 -194.53547499 202.93141831 -200.4296875 202.78125 C-202.14744427 202.76631826 -203.86523524 202.75493564 -205.58303833 202.74694824 C-210.09174626 202.71648631 -214.59837329 202.63797851 -219.10626221 202.54931641 C-223.71118011 202.46729419 -228.31643626 202.43090206 -232.921875 202.390625 C-241.94882809 202.30497532 -250.97424063 202.16854326 -260 202 C-260.26119629 201.45005371 -260.52239258 200.90010742 -260.79150391 200.33349609 C-261.31623291 199.25189209 -261.31623291 199.25189209 -261.8515625 198.1484375 C-262.36710693 197.07601807 -262.36710693 197.07601807 -262.89306641 195.98193359 C-265.00792312 192.19534189 -267.89393583 190.50275644 -271.75 188.75 C-278.45648364 187.20234993 -284.10102441 187.24371125 -290.20703125 190.65625 C-294.13554335 193.60049436 -296.46547875 197.39643625 -298 202 C-298.81527868 208.65588167 -297.74596797 214.38104804 -294 220 C-289.06720859 224.70857362 -284.15054692 226.36829833 -277.48046875 226.28125 C-271.96717248 225.65612034 -267.46482587 223.46482587 -263.5625 219.5625 C-261.71851645 216.69813427 -261.71851645 216.69813427 -260 212 C-236.24 212 -212.48 212 -188 212 C-188.33 214.64 -188.66 217.28 -189 220 C-189.17576788 222.81435386 -189.18491572 225.61804908 -189.1875 228.4375 C-189.19974609 229.13681641 -189.21199219 229.83613281 -189.22460938 230.55664062 C-189.23531675 234.4434182 -188.86900143 237.97815511 -187.9855957 241.76977539 C-187.80205032 242.56613907 -187.61850494 243.36250275 -187.42939758 244.18299866 C-187.28769638 244.7826091 -187.14599518 245.38221954 -187 246 C-188.73117065 245.94332153 -188.73117065 245.94332153 -190.49731445 245.88549805 C-194.82710185 245.76137799 -199.15416718 245.72482604 -203.4855957 245.71313477 C-205.35086465 245.69622024 -207.21608504 245.6563364 -209.08032227 245.59204102 C-220.58396765 244.90076628 -220.58396765 244.90076628 -230.53662109 249.70385742 C-233.45320689 252.87312555 -235.7156291 256.35708135 -238 260 C-239.0891109 261.43731474 -240.19059481 262.86547798 -241.3125 264.27734375 C-242.21271817 265.49416407 -243.10878009 266.71407386 -244 267.9375 C-245.36212419 269.79512745 -246.72854623 271.64273272 -248.14091492 273.46260071 C-249.58237133 275.42999345 -250.85241669 277.37188806 -252.12287903 279.44511414 C-258.8753401 289.87697935 -258.8753401 289.87697935 -264.84286499 291.23417664 C-269.32141842 291.78861881 -273.76613624 291.5794307 -278.26171875 291.3671875 C-279.90500892 291.34102149 -281.54840956 291.32111859 -283.19184875 291.30715942 C-287.4840221 291.25410988 -291.76938726 291.11701632 -296.05889893 290.96130371 C-300.44913612 290.81716097 -304.84049235 290.75395483 -309.23242188 290.68359375 C-317.82471356 290.53417508 -326.4115064 290.29579975 -335 290 C-335.26119629 289.45005371 -335.52239258 288.90010742 -335.79150391 288.33349609 C-336.31623291 287.25189209 -336.31623291 287.25189209 -336.8515625 286.1484375 C-337.19525879 285.43349121 -337.53895508 284.71854492 -337.89306641 283.98193359 C-340.00792312 280.19534189 -342.89393583 278.50275644 -346.75 276.75 C-353.45648364 275.20234993 -359.10102441 275.24371125 -365.20703125 278.65625 C-369.13554335 281.60049436 -371.46547875 285.39643625 -373 290 C-373.81527868 296.65588167 -372.74596797 302.38104804 -369 308 C-364.06720859 312.70857362 -359.15054692 314.36829833 -352.48046875 314.28125 C-346.96717248 313.65612034 -342.46482587 311.46482587 -338.5625 307.5625 C-337.05635322 305.09241928 -336.03803466 302.69170027 -335 300 C-334.04644119 299.99857498 -333.09288239 299.99714996 -332.11042786 299.99568176 C-323.12018821 299.97900595 -314.13040086 299.93621479 -305.14040089 299.86790943 C-300.51858352 299.83363105 -295.89709699 299.80852816 -291.27514648 299.80444336 C-286.81390479 299.80016218 -282.35340951 299.77171502 -277.89240074 299.72656822 C-276.19122351 299.71358734 -274.48995699 299.70928765 -272.78873634 299.71384621 C-270.40366847 299.71874834 -268.02078545 299.69268137 -265.63598633 299.65942383 C-264.93395584 299.66804947 -264.23192535 299.67667511 -263.50862122 299.68556213 C-259.65352953 299.59555307 -258.11965663 299.10066024 -255.12763977 296.58364868 C-254.42551865 295.73104462 -253.72339752 294.87844055 -253 294 C-252.44618652 293.3407251 -251.89237305 292.6814502 -251.32177734 292.00219727 C-250.8314502 291.36338623 -250.34112305 290.7245752 -249.8359375 290.06640625 C-249.27640381 289.34163086 -248.71687012 288.61685547 -248.14038086 287.87011719 C-247.55780518 287.10860352 -246.97522949 286.34708984 -246.375 285.5625 C-245.1343918 283.9542132 -243.89350293 282.34614288 -242.65234375 280.73828125 C-242.03858887 279.94115723 -241.42483398 279.1440332 -240.79248047 278.32275391 C-238.1911052 274.95180807 -235.5676548 271.59851296 -232.9375 268.25 C-232.50937012 267.70287354 -232.08124023 267.15574707 -231.64013672 266.59204102 C-230.43385724 265.05575963 -229.21705926 263.52775569 -228 262 C-227.31019043 260.96713867 -226.62038086 259.93427734 -225.90966797 258.87011719 C-223.73519898 256.28685972 -222.23735704 255.53964869 -218.88745117 255.16015625 C-217.27365692 255.09385764 -215.65812409 255.06328956 -214.04296875 255.0625 C-212.75027824 255.03965942 -212.75027824 255.03965942 -211.43147278 255.01635742 C-209.61190339 254.99479642 -207.79208691 254.98903301 -205.97241211 254.99804688 C-203.20326102 254.99998895 -200.44527761 254.91686781 -197.67773438 254.828125 C-184.81391969 254.65513954 -184.81391969 254.65513954 -180.10058594 258.1496582 C-178.09605427 260.6748565 -176.57908283 263.19740179 -175 266 C-166.53541086 275.22501067 -154.08516175 282.22813291 -141.45458984 283.19481277 C-138.51067211 283.28455149 -135.57223771 283.31271361 -132.62695312 283.31884766 C-131.51387787 283.32889328 -130.40080261 283.3389389 -129.2539978 283.34928894 C-125.59642017 283.38003482 -121.93891546 283.39713237 -118.28125 283.4140625 C-115.73676937 283.43278103 -113.19229491 283.45235496 -110.64782715 283.4727478 C-104.64865304 283.51877141 -98.64948554 283.55620545 -92.65023184 283.58942068 C-85.14436108 283.63150851 -77.63859516 283.68683677 -70.1328125 283.7421875 C-56.7552661 283.84078096 -43.37769433 283.91946255 -30 284 C-30 300.83 -30 317.66 -30 335 C-104.58 335 -179.16 335 -256 335 C-257.32 332.36 -258.64 329.72 -260 327 C-264.45503869 322.54496131 -269.16669478 320.94501573 -275.375 320.625 C-280.27336461 320.76518889 -284.07075336 322.05520513 -288 325 C-292.6091935 330.03237007 -294.38426654 334.71853451 -294.2734375 341.5234375 C-293.71605802 346.57170305 -291.99486172 351.09581381 -288.28125 354.640625 C-282.65288633 358.79035076 -277.79353086 359.77029011 -271 359 C-265.3374507 357.33826304 -261.14519844 355.15812545 -258 350 C-257.34 348.35 -256.68 346.7 -256 345 C-181.42 345 -106.84 345 -30 345 C-30 354.98366679 -33.92057782 362.93592206 -40.83203125 370.09375 C-50.71258663 378.78151762 -61.97026881 379.29855085 -74.58103943 379.26742554 C-75.94699146 379.27116728 -77.31294136 379.27577088 -78.6788879 379.28115618 C-82.41319338 379.29333637 -86.14740894 379.29313164 -89.88172972 379.29076743 C-93.91657923 379.29035801 -97.95140039 379.30141015 -101.98623657 379.31088257 C-109.88318607 379.32746495 -117.78010569 379.33299082 -125.67707115 379.33410732 C-132.09696982 379.33505888 -138.51685866 379.33917453 -144.93675423 379.34550858 C-163.14965115 379.36311156 -181.36252454 379.37234864 -199.57543003 379.37084763 C-200.5564097 379.37076772 -201.53738937 379.3706878 -202.5480957 379.37060547 C-203.53027657 379.37052371 -204.51245745 379.37044195 -205.52440137 379.37035771 C-221.4474021 379.36954453 -237.37030829 379.38869257 -253.29328167 379.4168822 C-269.65394116 379.44561763 -286.01455454 379.45942221 -302.37523991 379.45769465 C-311.55617936 379.45703109 -320.73701964 379.46250862 -329.91793633 379.48405075 C-337.73293688 379.50227096 -345.54779328 379.5066028 -353.3628059 379.4930319 C-357.34790762 379.48650717 -361.33273282 379.4863671 -365.31780815 379.5037384 C-368.97025937 379.51949578 -372.62221542 379.51657886 -376.27465475 379.49917014 C-378.21239962 379.49466148 -380.15016002 379.50973642 -382.08784479 379.52564943 C-393.06078184 379.43919432 -401.88401106 376.55626557 -410 369 C-418.21193612 360.17977232 -420.60700092 350.66555366 -420.48101807 338.86386108 C-420.48443577 337.67925376 -420.48785347 336.49464643 -420.49137473 335.27414191 C-420.49679356 332.01284093 -420.48441094 328.75218733 -420.46426249 325.49096274 C-420.44689801 321.96418105 -420.45284051 318.43742647 -420.45587158 314.91061401 C-420.45796329 308.80909554 -420.44547315 302.70774891 -420.42292023 296.60627365 C-420.39033441 287.78472609 -420.3799865 278.96326115 -420.37496826 270.14165993 C-420.3662259 255.82730308 -420.33963915 241.51303769 -420.30175781 227.19873047 C-420.26501025 213.29834448 -420.23671195 199.39798339 -420.21972656 185.49755859 C-420.21867567 184.6399311 -420.21762477 183.78230361 -420.21654204 182.89868741 C-420.21132167 178.59598139 -420.20626689 174.29327519 -420.20129442 169.99056888 C-420.15986539 134.32698073 -420.0894459 98.66349882 -420 63 C-419.52686371 63.41232376 -419.05372742 63.82464752 -418.56625366 64.24946594 C-417.9415921 64.7901622 -417.31693054 65.33085846 -416.67333984 65.88793945 C-416.05582855 66.42401321 -415.43831726 66.96008698 -414.80209351 67.5124054 C-412.54454844 69.37596677 -410.20303725 70.80557913 -407.625 72.1875 C-406.34496094 72.88939453 -406.34496094 72.88939453 -405.0390625 73.60546875 C-396.29668541 77.61707366 -388.89015323 78.42919675 -379.2671051 78.37181091 C-377.88465342 78.37438904 -376.50220368 78.37829327 -375.11975902 78.3834005 C-371.33978999 78.39363229 -367.5600559 78.38539958 -363.78009832 78.37410367 C-359.69617143 78.36522477 -355.61227691 78.37376103 -351.52835083 78.38031006 C-344.45669502 78.389454 -337.38510414 78.38814738 -330.31344795 78.38012505 C-320.07821798 78.36887934 -309.84308025 78.37794704 -299.60785829 78.39268685 C-282.98621376 78.41644464 -266.36458062 78.42982208 -249.74291992 78.43383789 C-248.74877659 78.43408276 -247.75463326 78.43432763 -246.73036437 78.43457992 C-235.63868345 78.43712591 -224.54700341 78.43769251 -213.45532227 78.43664551 C-209.43269857 78.43631247 -205.41007487 78.43602708 -201.38745117 78.43579102 C-200.3948262 78.43572823 -199.40220122 78.43566544 -198.3794967 78.43560075 C-181.81993693 78.43499565 -165.26042976 78.44988733 -148.70089191 78.47662407 C-138.49320873 78.4924182 -128.28569551 78.49469868 -118.07801055 78.47949005 C-111.08280722 78.47001812 -104.08770626 78.4747911 -97.09251494 78.49070387 C-93.05881241 78.49939043 -89.02538207 78.50155723 -84.9916935 78.48617744 C-81.2948285 78.47219457 -77.59845508 78.47676201 -73.90161645 78.49569846 C-71.94001739 78.50098929 -69.97839522 78.48665625 -68.01684767 78.47148794 C-56.99531245 78.56103277 -48.15517243 81.40725325 -40 89 C-33.62018836 95.85239028 -29.86294612 103.60777841 -30 113 C-30.98855327 112.98763967 -31.97710653 112.97527933 -32.99561596 112.96254444 C-57.18160188 112.66457756 -81.36653793 112.47872097 -105.55427837 112.40672016 C-117.25218068 112.36937074 -128.94782585 112.29716631 -140.64477539 112.1394043 C-150.85421581 112.00179726 -161.06154204 111.93315291 -171.27194148 111.94328564 C-176.66668283 111.94633704 -182.0565445 111.91761611 -187.45023155 111.805933 C-214.07310816 111.28141111 -232.18451071 113.19650068 -253.02019691 130.59993553 C-257.87001962 134.50619605 -263.10554374 137.750382 -268.375 141.0625 C-270.09220315 142.17675766 -271.80852143 143.29238183 -273.5234375 144.41015625 C-274.39250732 144.96026367 -275.26157715 145.51037109 -276.15698242 146.07714844 C-278.305171 147.53005812 -280.2477208 148.99534691 -282.2434082 150.63378906 C-292.94195442 159.08528737 -302.16186102 159.24095804 -315.4375 158.625 C-317.34428237 158.57470624 -319.25119445 158.52910257 -321.15820312 158.48828125 C-325.77541012 158.37941929 -330.38622483 158.2076694 -335 158 C-335.26119629 157.45005371 -335.52239258 156.90010742 -335.79150391 156.33349609 C-336.31623291 155.25189209 -336.31623291 155.25189209 -336.8515625 154.1484375 C-337.19525879 153.43349121 -337.53895508 152.71854492 -337.89306641 151.98193359 C-340.00792312 148.19534189 -342.89393583 146.50275644 -346.75 144.75 C-353.45648364 143.20234993 -359.10102441 143.24371125 -365.20703125 146.65625 C-369.13554335 149.60049436 -371.46547875 153.39643625 -373 158 C-373.81527868 164.65588167 -372.74596797 170.38104804 -369 176 C-364.06720859 180.70857362 -359.15054692 182.36829833 -352.48046875 182.28125 C-346.96717248 181.65612034 -342.46482587 179.46482587 -338.5625 175.5625 C-337.05635322 173.09241928 -336.03803466 170.69170027 -335 168 C-333.20937134 168.02525757 -333.20937134 168.02525757 -331.38256836 168.05102539 C-326.88108666 168.10231088 -322.38128195 168.09308149 -317.87963867 168.06713867 C-315.94502695 168.0640885 -314.0103163 168.0766597 -312.07592773 168.10620117 C-298.07680356 168.3056189 -289.24641397 166.39203782 -278 158 C-275.68292636 156.43265302 -273.34083926 154.90694485 -271 153.375 C-269.75907835 152.54105049 -268.51922542 151.70550438 -267.28125 150.8671875 C-261.14737496 146.73952689 -254.93544107 142.73024661 -248.734375 138.70458984 C-247.82171875 138.1111377 -246.9090625 137.51768555 -245.96875 136.90625 C-245.06397698 136.33132498 -244.15920397 135.75639996 -243.22701359 135.16405296 C-240.97429087 133.65336478 -238.92181512 132.16439449 -236.82504177 130.47094154 C-226.54683638 122.451711 -218.14557494 121.59919807 -205.39672852 121.86474609 C-203.47335967 121.86757338 -201.54998006 121.86597074 -199.62661743 121.86032104 C-194.45108289 121.85747422 -189.27790819 121.91589211 -184.10291791 121.98606062 C-178.67786238 122.04895483 -173.25274119 122.05447765 -167.82737732 122.0663147 C-157.57443756 122.09728517 -147.32257547 122.17919401 -137.07010835 122.27980959 C-125.38936174 122.39193165 -113.70856122 122.44665302 -102.02740967 122.49676394 C-78.01753965 122.60103888 -54.00914524 122.78428441 -30 123 C-30 134.88 -30 146.76 -30 159 C-26.7 159 -23.4 159 -20 159 C-20.06915176 151.63476471 -20.15725334 144.27008225 -20.26245117 136.90527344 C-20.29557919 134.40305749 -20.32364833 131.90076899 -20.34643555 129.3984375 C-20.38020452 125.78874981 -20.43253274 122.17971976 -20.48828125 118.5703125 C-20.49786613 116.90876633 -20.49786613 116.90876633 -20.50764465 115.21365356 C-20.74356189 102.57590774 -24.27560258 91.7690778 -33.3515625 82.6328125 C-35.52693086 80.69836441 -37.75129594 78.84777233 -40 77 C-41.01336122 76.01354218 -42.01880387 75.01845675 -43 74 C-42.11248047 73.31164062 -42.11248047 73.31164062 -41.20703125 72.609375 C-40.41683594 71.99578125 -39.62664062 71.3821875 -38.8125 70.75 C-38.03519531 70.14671875 -37.25789063 69.5434375 -36.45703125 68.921875 C-35.64621094 68.28765625 -34.83539063 67.6534375 -34 67 C-32.77796875 66.09121094 -32.77796875 66.09121094 -31.53125 65.1640625 C-13.46489332 49.71844274 -2.23405124 23.23413293 0 0 Z " fill="#399248" transform="translate(430,123)"/>
<path d="M0 0 C1.8834729 1.3851221 3.66692356 2.83507407 5.4453125 4.3515625 C5.99832031 4.76277344 6.55132812 5.17398437 7.12109375 5.59765625 C24.4025139 18.98579094 35.47235191 44.83966632 38.21826172 65.89648438 C41.08865574 96.93377711 34.97877679 127.5605646 15.4453125 152.3515625 C14.63126953 153.41503906 14.63126953 153.41503906 13.80078125 154.5 C8.69707411 160.78339613 1.71817844 166.71512953 -5.5546875 170.3515625 C-7.46644146 170.48361794 -9.38268082 170.55258301 -11.29858398 170.59204102 C-12.50421494 170.61778702 -13.70984589 170.64353302 -14.95201111 170.6700592 C-20.49811017 170.75437141 -26.04403584 170.82020253 -31.59057617 170.86645508 C-34.5096516 170.89308558 -37.42706844 170.94164397 -40.34545898 171.01000977 C-43.88173339 171.09262478 -47.4164434 171.13474058 -50.95363045 171.14951897 C-52.93845686 171.16751695 -54.92280048 171.22504606 -56.90684509 171.28358459 C-66.3869259 171.26343026 -71.561822 168.6504932 -78.5546875 162.3515625 C-79.12474014 161.87202621 -79.69479279 161.39248993 -80.28211975 160.89842224 C-92.63071536 150.22129589 -99.63360294 136.26751869 -105.5546875 121.3515625 C-105.88210937 120.55492187 -106.20953125 119.75828125 -106.546875 118.9375 C-115.78053515 94.28267548 -113.75268543 63.32611768 -103.5546875 39.3515625 C-99.0605908 29.50403857 -93.92090394 20.35232193 -86.5546875 12.3515625 C-85.78382813 11.50078125 -85.01296875 10.65 -84.21875 9.7734375 C-60.99795495 -14.69263678 -27.99189494 -18.06204842 0 0 Z " fill="#FDC76E" transform="translate(343.5546875,21.6484375)"/>
<path d="M0 0 C0.33 0 0.66 0 1 0 C1.09304068 9.97987846 1.16393688 19.95965223 1.20724869 29.93987751 C1.22804547 34.5750654 1.25621693 39.20995464 1.30175781 43.8449707 C1.34549987 48.32539456 1.36919646 52.80553274 1.37950897 57.28615379 C1.3868498 58.98804401 1.40118362 60.68992016 1.42292023 62.39168739 C1.59104059 76.11045959 0.39991898 86.48990816 -9.58203125 96.78125 C-22.52941459 108.66188609 -40.52498716 114.01331481 -57.5625 116.75 C-58.28050781 116.86553223 -58.99851562 116.98106445 -59.73828125 117.10009766 C-76.92297301 119.6100072 -94.3456203 119.19609146 -111.6640625 119.23828125 C-113.09364208 119.24233986 -114.5232215 119.24645706 -115.95280075 119.25063133 C-122.66488172 119.26959115 -129.37695223 119.28385032 -136.0890547 119.2922433 C-143.78461228 119.30203234 -151.47988356 119.32843391 -159.17534029 119.36874419 C-165.16475828 119.39902306 -171.15409451 119.41372256 -177.14358747 119.41702431 C-180.70362995 119.41935781 -184.26336326 119.42809641 -187.8233223 119.45348549 C-191.7945782 119.48136415 -195.76546198 119.47689918 -199.73681641 119.4699707 C-200.89145889 119.48278076 -202.04610138 119.49559082 -203.23573303 119.50878906 C-216.96591883 119.42199392 -228.32806368 115.39271507 -238.25390625 105.828125 C-242.50263004 101.28989332 -245.74067126 96.79566937 -248 91 C-248.29777344 90.26394531 -248.59554687 89.52789062 -248.90234375 88.76953125 C-252.99650797 77.20398901 -251.84666183 65.14158651 -247 54 C-240.51915158 42.16321727 -230.48321508 33.94358102 -217.63322449 29.95495605 C-211.87789124 28.55292098 -206.10877491 28.70799503 -200.21606445 28.71289062 C-198.27449522 28.70240021 -196.33292598 28.69190941 -194.39135683 28.68140411 C-192.31588804 28.67206832 -190.24045929 28.6675714 -188.16497231 28.66447449 C-183.81085229 28.65770614 -179.45688373 28.63588163 -175.10282898 28.61193848 C-165.83942179 28.56309436 -156.57598205 28.53078876 -147.3125 28.5 C-137.35224297 28.46677775 -127.39204565 28.43033639 -117.43187875 28.37586927 C-113.82353192 28.35659356 -110.21526267 28.34120255 -106.60686684 28.33552551 C-50.75760256 28.614573 -50.75760256 28.614573 -2.875 3.0625 C-2.33617187 2.47597656 -1.79734375 1.88945312 -1.2421875 1.28515625 C-0.83226562 0.86105469 -0.42234375 0.43695313 0 0 Z " fill="#46B75B" transform="translate(501,278)"/>
<path d="M0 0 C7.65707858 -0.86683908 12.77768921 1.5891334 19 6 C25.31988173 11.72904136 30.25498486 18.55034134 32 27 C32.08867519 28.93036662 32.12198606 30.86355796 32.12025452 32.79595947 C32.12231651 34.57117981 32.12231651 34.57117981 32.12442017 36.38226318 C32.11902725 38.32434662 32.11902725 38.32434662 32.11352539 40.30566406 C32.11324326 41.68554685 32.11340176 43.0654298 32.1139679 44.4453125 C32.11425485 48.18877105 32.10837457 51.93219758 32.10139394 55.67564869 C32.09514346 59.58875682 32.09455526 63.50186568 32.09336853 67.41497803 C32.09026022 74.82387226 32.08205356 82.23275174 32.07201904 89.64163947 C32.06084239 98.07687805 32.05534354 106.51211733 32.05032361 114.94736147 C32.03987054 132.29824951 32.02228076 149.6491232 32 167 C30.59735404 167.48457304 29.19314978 167.9646365 27.78833008 168.44287109 C27.00653885 168.71070404 26.22474762 168.97853699 25.41926575 169.25448608 C21.5680949 170.44125172 17.66845285 171.04711975 13.6875 171.625 C12.85428223 171.74979736 12.02106445 171.87459473 11.16259766 172.00317383 C-0.94144803 173.77172113 -12.78996663 174.13020178 -25 174 C-25 169.38 -25 164.76 -25 160 C-26.65 160 -28.3 160 -30 160 C-30 159.67 -30 159.34 -30 159 C-26.7 159 -23.4 159 -20 159 C-20.06915176 151.63476471 -20.15725334 144.27008225 -20.26245117 136.90527344 C-20.29557919 134.40305749 -20.32364833 131.90076899 -20.34643555 129.3984375 C-20.38020452 125.78874981 -20.43253274 122.17971976 -20.48828125 118.5703125 C-20.49467117 117.46261505 -20.5010611 116.3549176 -20.50764465 115.21365356 C-20.74356189 102.57590774 -24.27560258 91.7690778 -33.3515625 82.6328125 C-35.52693086 80.69836441 -37.75129594 78.84777233 -40 77 C-41.01336122 76.01354218 -42.01880387 75.01845675 -43 74 C-42.11248047 73.31164062 -42.11248047 73.31164062 -41.20703125 72.609375 C-40.41683594 71.99578125 -39.62664062 71.3821875 -38.8125 70.75 C-38.03519531 70.14671875 -37.25789063 69.5434375 -36.45703125 68.921875 C-35.64621094 68.28765625 -34.83539063 67.6534375 -34 67 C-33.1853125 66.39414063 -32.370625 65.78828125 -31.53125 65.1640625 C-13.46489332 49.71844274 -2.23405124 23.23413293 0 0 Z " fill="#2A6D37" transform="translate(430,123)"/>
<path d="M0 0 C3.3 0 6.6 0 10 0 C10 4.95 10 9.9 10 15 C15.28 15 20.56 15 26 15 C26 10.05 26 5.1 26 0 C29.3 0 32.6 0 36 0 C36 4.95 36 9.9 36 15 C37.32 15.20625 38.64 15.4125 40 15.625 C47.14642757 17.24305907 51.99892848 21.05957926 55.9375 27.1875 C59.32550671 33.01027764 59.64709862 38.36945521 59 45 C57.40052779 50.40339836 54.78226253 54.81249506 51 59 C52.70768079 62.55038751 54.74198184 65.79398379 56.87890625 69.09765625 C59.80324365 74.05985943 59.53752893 79.42313734 59 85 C57.17672575 91.37155077 53.78389412 97.55574542 48.11328125 101.21875 C43.87697831 103.47811157 40.95069749 104.17488375 36 105 C36 109.95 36 114.9 36 120 C32.7 120 29.4 120 26 120 C26 115.05 26 110.1 26 105 C20.72 105 15.44 105 10 105 C10 109.95 10 114.9 10 120 C6.7 120 3.4 120 0 120 C0 115.05 0 110.1 0 105 C-2.8771875 105.0928125 -2.8771875 105.0928125 -5.8125 105.1875 C-11.40101039 105.36777453 -11.40101039 105.36777453 -13.65811157 103.98193359 C-15.7590682 100.87887641 -15.41673708 97.61642021 -15.38818359 93.99609375 C-15.39344055 93.18117462 -15.39869751 92.36625549 -15.40411377 91.52664185 C-15.41732901 88.83006686 -15.40857043 86.1340811 -15.3984375 83.4375 C-15.4004578 81.56567267 -15.40336887 79.69384611 -15.40713501 77.82202148 C-15.41156042 73.89787303 -15.40512032 69.97392935 -15.39111328 66.04980469 C-15.37402127 61.01559653 -15.38386129 55.98186816 -15.40183067 50.94767761 C-15.41266264 47.08211644 -15.40922487 43.21666932 -15.4014473 39.35110474 C-15.39944366 37.49471988 -15.40191027 35.63832473 -15.40888596 33.7819519 C-15.41649082 31.18899031 -15.40491014 28.59680957 -15.38818359 26.00390625 C-15.39425629 25.23394318 -15.40032898 24.4639801 -15.40658569 23.67068481 C-15.34479056 18.50924651 -15.34479056 18.50924651 -13.65811157 16.01806641 C-9.84590256 13.67740249 -4.23525147 14.86337898 0 15 C0 10.05 0 5.1 0 0 Z " fill="#282625" transform="translate(288,45)"/>
<path d="M0 0 C16.36416097 -0.77108612 32.14858625 4.4998195 44.5 15.5 C46.01001636 16.98991631 47.51084949 18.48922843 49 20 C49.65871094 20.56589844 50.31742187 21.13179687 50.99609375 21.71484375 C68.04515258 36.84288187 76.67791015 62.88618375 78.21142578 85.05664062 C79.4058093 112.9170275 73.82457923 142.34065953 54.90429688 163.97094727 C37.90516091 182.48026378 37.90516091 182.48026378 29.47021484 183.22265625 C26.6501406 183.17053474 23.87249698 182.99200931 21.0625 182.75 C19.6074707 182.65138672 19.6074707 182.65138672 18.12304688 182.55078125 C15.74653901 182.38688416 13.37344507 182.20286401 11 182 C11.72703125 181.28585938 12.4540625 180.57171875 13.203125 179.8359375 C36.85017726 155.85861915 47.25465243 126.03349223 47.18066406 92.73608398 C47.10889677 84.97098682 46.56996921 77.62427576 45 70 C44.75507813 68.75605469 44.51015625 67.51210937 44.2578125 66.23046875 C40.96882232 50.84187755 34.43500228 36.59202981 25 24 C24.00419922 22.61941406 24.00419922 22.61941406 22.98828125 21.2109375 C17.7771007 14.37186507 11.77540376 9.32370837 4.94140625 4.21484375 C2 2 2 2 0 0 Z " fill="#FDC76E" transform="translate(344,10)"/>
<path d="M0 0 C1.8834729 1.3851221 3.66692356 2.83507407 5.4453125 4.3515625 C5.99832031 4.76277344 6.55132812 5.17398437 7.12109375 5.59765625 C24.4025139 18.98579094 35.47235191 44.83966632 38.21826172 65.89648438 C41.08865574 96.93377711 34.97877679 127.5605646 15.4453125 152.3515625 C14.63126953 153.41503906 14.63126953 153.41503906 13.80078125 154.5 C8.69707411 160.78339613 1.71817844 166.71512953 -5.5546875 170.3515625 C-7.46644146 170.48361794 -9.38268082 170.55258301 -11.29858398 170.59204102 C-12.50421494 170.61778702 -13.70984589 170.64353302 -14.95201111 170.6700592 C-20.49811017 170.75437141 -26.04403584 170.82020253 -31.59057617 170.86645508 C-34.5096516 170.89308558 -37.42706844 170.94164397 -40.34545898 171.01000977 C-43.88173339 171.09262478 -47.4164434 171.13474058 -50.95363045 171.14951897 C-52.93845686 171.16751695 -54.92280048 171.22504606 -56.90684509 171.28358459 C-66.3869259 171.26343026 -71.561822 168.6504932 -78.5546875 162.3515625 C-79.12474014 161.87202621 -79.69479279 161.39248993 -80.28211975 160.89842224 C-92.63071536 150.22129589 -99.63360294 136.26751869 -105.5546875 121.3515625 C-105.88210937 120.55492187 -106.20953125 119.75828125 -106.546875 118.9375 C-115.78053515 94.28267548 -113.75268543 63.32611768 -103.5546875 39.3515625 C-99.0605908 29.50403857 -93.92090394 20.35232193 -86.5546875 12.3515625 C-85.78382813 11.50078125 -85.01296875 10.65 -84.21875 9.7734375 C-60.99795495 -14.69263678 -27.99189494 -18.06204842 0 0 Z M-81.12402344 20.64306641 C-98.7568765 41.70018343 -103.559883 69.80710753 -101.24609375 96.46484375 C-98.55153107 119.42824079 -87.79013211 142.585793 -69.5546875 157.3515625 C-56.39002406 166.73440462 -43.2016293 169.96234907 -27.171875 168.0703125 C-17.13538666 165.8866414 -8.13042382 161.17907795 -0.5546875 154.3515625 C0.26902344 153.62066406 1.09273438 152.88976562 1.94140625 152.13671875 C19.49616356 135.65074423 27.89640803 111.15478136 28.6484375 87.44140625 C29.07118382 59.48360349 21.18959497 34.86895122 1.7578125 14.2265625 C-9.80283515 2.91226046 -23.33783485 -1.94664463 -39.30761719 -1.96313477 C-56.30824364 -1.63619964 -70.20512818 8.34810064 -81.12402344 20.64306641 Z " fill="#F9D7A0" transform="translate(343.5546875,21.6484375)"/>
<path d="M0 0 C0.70801758 0.00749268 1.41603516 0.01498535 2.14550781 0.02270508 C15.31551153 0.29467447 27.30991096 5.46062963 37.0625 14.25 C37.88621094 14.98089844 38.70992188 15.71179688 39.55859375 16.46484375 C54.12450998 30.14394621 61.26183535 48.05177088 65.0625 67.25 C65.2584375 68.19875 65.454375 69.1475 65.65625 70.125 C67.23221364 82.24779722 66.68219318 95.34093504 64.0625 107.25 C63.69511719 109.01150391 63.69511719 109.01150391 63.3203125 110.80859375 C58.71145874 130.40641883 47.73963405 149.76925935 30.96875 161.39453125 C17.89713475 169.23419948 3.9411788 172.59187729 -11.2265625 169.6015625 C-28.62697271 164.22993191 -42.21437948 152.39297575 -51.16015625 136.6953125 C-64.63448443 110.57584557 -67.81380001 81.99426139 -59.90625 53.5390625 C-55.01405796 38.82943104 -47.98937752 27.04068101 -36.9375 16.25 C-36.28136719 15.57324219 -35.62523437 14.89648438 -34.94921875 14.19921875 C-25.81311774 5.3761319 -12.64747836 -0.17708891 0 0 Z M-28.9375 22.25 C-29.62457031 22.85714844 -30.31164062 23.46429688 -31.01953125 24.08984375 C-44.9769415 37.13988889 -53.07135353 57.63124091 -54.06152344 76.62963867 C-54.811962 102.34142428 -50.28962046 125.68405421 -32.15625 144.99609375 C-23.48964812 153.80001855 -13.11923677 160.47732634 -0.375 160.625 C14.06151697 160.36639011 24.32206907 154.76520454 34.6875 145.125 C50.83661945 128.26383825 56.57717644 105.53738192 56.41625977 82.81298828 C56.10763351 69.50801148 53.57634642 57.44681788 48.0625 45.25 C47.64355469 44.31671875 47.22460938 43.3834375 46.79296875 42.421875 C40.61635148 29.96184016 29.42206777 17.79489816 16.25 12.875 C14.53022289 12.3042226 12.80145627 11.75936357 11.0625 11.25 C10.42828125 11.05921875 9.7940625 10.8684375 9.140625 10.671875 C-5.36706867 7.7267041 -18.25576454 12.50418803 -28.9375 22.25 Z " fill="#2C2927" transform="translate(305.9375,19.75)"/>
<path d="M0 0 C16.80539678 12.82875508 25.98572404 30.26753186 29.75 50.8125 C30.26039343 54.83184828 30.54746338 58.76176751 30.75 62.8125 C24.15 62.8125 17.55 62.8125 10.75 62.8125 C11.41 61.389375 12.07 59.96625 12.75 58.5 C15.34962524 51.8937839 16.04688424 45.95416257 13.90234375 39.10546875 C10.78375027 32.05427603 6.37215207 27.700118 -0.765625 24.78515625 C-2.90385527 24.05560284 -5.07511674 23.42418592 -7.25 22.8125 C-7.25 17.8625 -7.25 12.9125 -7.25 7.8125 C-10.55 7.8125 -13.85 7.8125 -17.25 7.8125 C-17.25 12.7625 -17.25 17.7125 -17.25 22.8125 C-22.53 22.8125 -27.81 22.8125 -33.25 22.8125 C-33.25 17.8625 -33.25 12.9125 -33.25 7.8125 C-36.55 7.8125 -39.85 7.8125 -43.25 7.8125 C-43.25 12.7625 -43.25 17.7125 -43.25 22.8125 C-47.87 23.1425 -52.49 23.4725 -57.25 23.8125 C-57.58 36.6825 -57.91 49.5525 -58.25 62.8125 C-65.18 62.8125 -72.11 62.8125 -79.25 62.8125 C-78.27250816 43.26266315 -72.62634244 24.54714653 -59.25 9.8125 C-58.63511719 9.11769531 -58.02023438 8.42289063 -57.38671875 7.70703125 C-42.06356849 -8.66018135 -19.21197962 -12.74869018 0 0 Z " fill="#FCC76E" transform="translate(131.25,129.1875)"/>
<path d="M0 0 C16.36416097 -0.77108612 32.14858625 4.4998195 44.5 15.5 C46.01001636 16.98991631 47.51084949 18.48922843 49 20 C49.65871094 20.56589844 50.31742188 21.13179687 50.99609375 21.71484375 C67.38852101 36.26023696 75.68019533 60.75941862 78 82 C78 84.64 78 87.28 78 90 C68.1 90 58.2 90 48 90 C47.5875 87.03 47.175 84.06 46.75 81 C43.62927528 59.99111016 37.85223441 41.24572909 25 24 C24.37480469 23.12988281 23.74960938 22.25976562 23.10546875 21.36328125 C16.76714385 12.93369641 8.79565768 6.70529147 0 1 C0 0.67 0 0.34 0 0 Z " fill="#FBD9A2" transform="translate(144,102)"/>
<path d="M0 0 C2.44016247 2.17321095 4.74189845 4.43125876 7.03515625 6.7578125 C7.69386719 7.32371094 8.35257812 7.88960937 9.03125 8.47265625 C25.58676162 23.16275811 33.4274027 47.41998347 36.03515625 68.7578125 C36.14685347 71.44296942 36.11533324 74.06879966 36.03515625 76.7578125 C32.73515625 76.7578125 29.43515625 76.7578125 26.03515625 76.7578125 C25.68904297 74.51097656 25.68904297 74.51097656 25.3359375 72.21875 C22.10171241 51.98333232 16.91352291 33.52736119 3.03515625 17.7578125 C2.36871094 16.99726563 1.70226562 16.23671875 1.015625 15.453125 C-8.73451521 5.0178398 -21.33356903 -1.55081462 -35.62890625 -2.48046875 C-51.48137877 -2.77750719 -64.85370793 1.91438721 -76.66918945 12.87207031 C-90.59669814 26.48499461 -98.81429619 44.72140544 -101.96484375 63.7578125 C-102.16851562 64.92570312 -102.3721875 66.09359375 -102.58203125 67.296875 C-103.06372097 70.11442992 -103.52515386 72.93345158 -103.96484375 75.7578125 C-110.1171875 75.85546875 -110.1171875 75.85546875 -111.96484375 75.7578125 C-113.64996065 74.0726956 -113.21752296 72.07508115 -113.27734375 69.7578125 C-113.02962599 46.55491582 -101.55024715 23.41105757 -85.96484375 6.7578125 C-61.80072652 -16.57175123 -27.29017565 -20.63842006 0 0 Z " fill="#F9D7A0" transform="translate(145.96484375,115.2421875)"/>
<path d="M0 0 C6.17193728 3.76277061 9.77799714 9.17668148 12 16 C13.33893904 24.3390063 11.30635096 30.72866465 6.90234375 37.75 C3.12781287 42.86800797 -2.15038502 45.05012834 -8 47 C-16.09935265 47.94335222 -22.27622488 46.67125429 -29 42 C-34.50615253 37.21406151 -37.38067562 31.58300045 -38.3515625 24.3984375 C-38.77559988 16.47563376 -36.65553331 10.11573109 -31.35546875 4.1484375 C-22.2741657 -4.174382 -10.96899956 -5.37215435 0 0 Z " fill="#282927" transform="translate(308,330)"/>
<path d="M0 0 C16.36416097 -0.77108612 32.14858625 4.4998195 44.5 15.5 C46.01001636 16.98991631 47.51084949 18.48922843 49 20 C49.65871094 20.56589844 50.31742187 21.13179687 50.99609375 21.71484375 C61.38720353 30.93512426 69.25175483 45.72582788 73 59 C73 59.99 73 60.98 73 62 C63.43 62 53.86 62 44 62 C42.68 58.7 41.36 55.4 40 52 C35.91503896 41.90431057 31.53924329 32.80093646 25 24 C24.33484375 23.07703125 23.6696875 22.1540625 22.984375 21.203125 C17.77200775 14.36913238 11.77300184 9.32191277 4.94140625 4.21484375 C2 2 2 2 0 0 Z " fill="#FCD9A2" transform="translate(344,10)"/>
<path d="M0 0 C5.83576204 -0.09214361 11.66897124 -0.17168646 17.50488281 -0.21972656 C19.48739199 -0.23976497 21.46984263 -0.26700353 23.45214844 -0.30175781 C26.31199641 -0.35061954 29.17105881 -0.37304673 32.03125 -0.390625 C32.90865845 -0.41127014 33.78606689 -0.43191528 34.69006348 -0.45318604 C40.53958179 -0.45528927 45.18388749 0.52857186 50 4 C52.76952814 7.14183462 53.89547034 10.28135859 54.5 14.4375 C53.88528418 18.81735021 52.9511051 22.62432553 50 26 C44.1345665 29.93067738 38.95499676 30.55353856 32.03125 30.390625 C31.11033569 30.38496521 30.18942139 30.37930542 29.24060059 30.37347412 C26.32651693 30.35125236 23.41370603 30.30108383 20.5 30.25 C18.51303871 30.2299166 16.52605796 30.21166906 14.5390625 30.1953125 C9.69183483 30.1548515 4.84732592 30.07653672 0 30 C0 20.1 0 10.2 0 0 Z " fill="#FEC86E" transform="translate(83,162)"/>
<path d="M0 0 C5.83576204 -0.09214361 11.66897124 -0.17168646 17.50488281 -0.21972656 C19.48739199 -0.23976497 21.46984263 -0.26700353 23.45214844 -0.30175781 C26.31199641 -0.35061954 29.17105881 -0.37304673 32.03125 -0.390625 C32.90865845 -0.41127014 33.78606689 -0.43191528 34.69006348 -0.45318604 C40.53958179 -0.45528927 45.18388749 0.52857186 50 4 C52.76952814 7.14183462 53.89547034 10.28135859 54.5 14.4375 C53.88528418 18.81735021 52.9511051 22.62432553 50 26 C44.1345665 29.93067738 38.95499676 30.55353856 32.03125 30.390625 C31.11033569 30.38496521 30.18942139 30.37930542 29.24060059 30.37347412 C26.32651693 30.35125236 23.41370603 30.30108383 20.5 30.25 C18.51303871 30.2299166 16.52605796 30.21166906 14.5390625 30.1953125 C9.69183483 30.1548515 4.84732592 30.07653672 0 30 C0 20.1 0 10.2 0 0 Z " fill="#FEC86E" transform="translate(283,110)"/>
<path d="M0 0 C5.83576204 -0.09214361 11.66897124 -0.17168646 17.50488281 -0.21972656 C19.48739199 -0.23976497 21.46984263 -0.26700353 23.45214844 -0.30175781 C26.31199641 -0.35061954 29.17105881 -0.37304673 32.03125 -0.390625 C32.90865845 -0.41127014 33.78606689 -0.43191528 34.69006348 -0.45318604 C40.53958179 -0.45528927 45.18388749 0.52857186 50 4 C52.76952814 7.14183462 53.89547034 10.28135859 54.5 14.4375 C53.88528418 18.81735021 52.9511051 22.62432553 50 26 C44.1345665 29.93067738 38.95499676 30.55353856 32.03125 30.390625 C31.11033569 30.38496521 30.18942139 30.37930542 29.24060059 30.37347412 C26.32651693 30.35125236 23.41370603 30.30108383 20.5 30.25 C18.51303871 30.2299166 16.52605796 30.21166906 14.5390625 30.1953125 C9.69183483 30.1548515 4.84732592 30.07653672 0 30 C0 20.1 0 10.2 0 0 Z " fill="#FEC86E" transform="translate(283,70)"/>
<path d="M0 0 C9.9 0 19.8 0 30 0 C28.06089706 6.46367648 26.32517319 12.05149813 23.3125 17.9375 C22.96292236 18.62352295 22.61334473 19.3095459 22.25317383 20.01635742 C16.56236657 30.91193796 9.13691515 39.78818167 0 48 C-0.79535156 48.7528125 -1.59070313 49.505625 -2.41015625 50.28125 C-10.76563032 56.95503595 -20.21041039 55.27432391 -30.24682617 54.20288086 C-30.82537354 54.13593018 -31.4039209 54.06897949 -32 54 C-30.90945313 52.92878906 -30.90945313 52.92878906 -29.796875 51.8359375 C-15.85281762 37.69713071 -3.94598979 19.72994893 0 0 Z " fill="#FCB033" transform="translate(387,138)"/>
<path d="M0 0 C19.12368267 1.47105251 19.12368267 1.47105251 25.4375 8.4375 C30.95662149 15.21454092 30.69382352 22.62005361 30 31 C27.92971977 41.6987636 21.14315901 49.38133858 12.3125 55.4375 C3.29904391 61 3.29904391 61 0 61 C0 40.87 0 20.74 0 0 Z " fill="#389148" transform="translate(472,225)"/>
<path d="M0 0 C-0.61875 0.91265625 -0.61875 0.91265625 -1.25 1.84375 C-6.55649306 9.89824839 -10.89345355 18.28338607 -15 27 C-15.41378906 27.87398437 -15.82757812 28.74796875 -16.25390625 29.6484375 C-20.65929405 39.77219142 -22.78467667 51.07436603 -24 62 C-30.83385507 57.28138579 -34.86393332 50.5442667 -36.875 42.5 C-36.91625 41.345 -36.9575 40.19 -37 39 C-37.06058594 38.16855469 -37.12117188 37.33710938 -37.18359375 36.48046875 C-37.62619679 26.89073631 -34.69425807 19.26088 -28.6875 11.8125 C-20.86834732 3.41415082 -11.43415191 -0.73768722 0 0 Z " fill="#2A6C37" transform="translate(47,122)"/>
<path d="M0 0 C0 0.66 0 1.32 0 2 C-5.47619048 7 -5.47619048 7 -8 7 C-8.27585937 7.59167969 -8.55171875 8.18335938 -8.8359375 8.79296875 C-9.94062069 10.88741843 -11.12556955 12.49056635 -12.625 14.3125 C-25.18421712 30.87342845 -30.41683812 50.29014697 -30.3125 70.875 C-30.30758545 72.02395752 -30.3026709 73.17291504 -30.29760742 74.35668945 C-30.1865665 82.3715661 -29.53923452 89.36190098 -27 97 C-26.64808594 98.20269531 -26.29617188 99.40539062 -25.93359375 100.64453125 C-22.48570613 112.11317142 -17.73206848 122.84203081 -9.28515625 131.51171875 C-8 133 -8 133 -8 135 C-7.401875 135.268125 -6.80375 135.53625 -6.1875 135.8125 C-4.02775192 136.98493467 -2.64209744 138.19369282 -1 140 C-1.33 140.66 -1.66 141.32 -2 142 C-17.3795974 132.01449939 -26.60321827 120.16037018 -33 103 C-33.29777344 102.21753906 -33.59554688 101.43507813 -33.90234375 100.62890625 C-37.26353795 91.24766272 -38.37104728 81.73499137 -38.3125 71.8125 C-38.30758545 70.8136377 -38.3026709 69.81477539 -38.29760742 68.78564453 C-38.08769722 55.38368557 -35.55313286 43.28372082 -30 31 C-29.58105469 30.06671875 -29.16210938 29.1334375 -28.73046875 28.171875 C-24.38121138 19.39815696 -11.09786869 0 0 0 Z " fill="#F9AE34" transform="translate(290,34)"/>
<path d="M0 0 C5.28 0 10.56 0 16 0 C16.556875 2.330625 17.11375 4.66125 17.6875 7.0625 C23.84837472 31.86110138 33.79375745 51.79375745 52 70 C43.09 70 34.18 70 25 70 C24.5875 67.03 24.175 64.06 23.75 61 C20.78783295 41.0585291 15.52228415 22.96542524 3.6640625 6.3828125 C2 4 2 4 0 0 Z " fill="#2A6C37" transform="translate(207,122)"/>
<path d="M0 0 C9.9 0 19.8 0 30 0 C30.66 3.135 31.32 6.27 32 9.5 C32.20882812 10.47130859 32.41765625 11.44261719 32.6328125 12.44335938 C32.87644531 13.63155273 32.87644531 13.63155273 33.125 14.84375 C33.37636719 16.03774414 33.37636719 16.03774414 33.6328125 17.25585938 C34.1080732 20.80767471 34 24.41652893 34 28 C24.1 28 14.2 28 4 28 C3.525625 24.865 3.05125 21.73 2.5625 18.5 C2.41498291 17.52869141 2.26746582 16.55738281 2.11547852 15.55664062 C1.99615967 14.76451172 1.87684082 13.97238281 1.75390625 13.15625 C1.63345947 12.36025391 1.5130127 11.56425781 1.38891602 10.74414062 C0.88218177 7.16868993 0.44791186 3.58329489 0 0 Z " fill="#FCC76E" transform="translate(188,164)"/>
<path d="M0 0 C-1.83132888 6.51139156 -6.32039877 11.39362407 -12.0234375 14.8125 C-22.62225279 20.15040213 -22.62225279 20.15040213 -28.6875 20.0625 C-29.89986328 20.04896484 -29.89986328 20.04896484 -31.13671875 20.03515625 C-31.75160156 20.02355469 -32.36648438 20.01195312 -33 20 C-33 21.65 -33 23.3 -33 25 C-37.95 25 -42.9 25 -48 25 C-48 18.4 -48 11.8 -48 5 C-45.81761719 4.80664062 -43.63523437 4.61328125 -41.38671875 4.4140625 C-39.23515963 4.2199439 -37.08376262 4.02411275 -34.93237305 3.828125 C-33.45564538 3.69450484 -31.97875949 3.56262007 -30.50170898 3.43261719 C-22.6999027 2.74476719 -14.98568213 1.99619334 -7.30786133 0.38037109 C-4.83488157 -0.02721406 -2.50189471 -0.06380261 0 0 Z " fill="#2A6C37" transform="translate(458,402)"/>
<path d="M0 0 C4.36492736 2.40706674 5.93942071 4.83284673 7.8125 9.4375 C8.54520346 14.47483626 7.62027557 18.24512573 5.20703125 22.63671875 C1.89427009 26.91454198 -2.56531496 28.20982491 -7.75 28.9375 C-11.90567414 28.33303831 -15.0494453 27.21048398 -18.1875 24.4375 C-21.62339266 19.77883377 -23.03044428 15.23274192 -22.1875 9.4375 C-20.42898855 4.50534364 -17.74068059 1.40845153 -13.0390625 -0.90234375 C-8.34602817 -2.57559861 -4.45447532 -1.90552555 0 0 Z " fill="#D4D2BE" transform="translate(302.1875,338.5625)"/>
<path d="M0 0 C0 0.66 0 1.32 0 2 C-5.47619048 7 -5.47619048 7 -8 7 C-8.38091797 7.84111328 -8.38091797 7.84111328 -8.76953125 8.69921875 C-10.16891013 11.31583513 -11.85975333 13.47485151 -13.6875 15.8125 C-24.69363074 30.87352101 -28.62577492 47.75595462 -31 66 C-33.31 66 -35.62 66 -38 66 C-37.26370901 46.56191792 -31.26999834 27.58241576 -18 13 C-17.04287109 11.94039062 -17.04287109 11.94039062 -16.06640625 10.859375 C-5.75 0 -5.75 0 0 0 Z " fill="#F8AE34" transform="translate(90,126)"/>
<path d="M0 0 C4.15132171 0.31616026 6.66810634 0.77227556 10.234375 3.0546875 C12.5467856 6.75454446 12.51491886 8.75980585 11.73828125 12.96484375 C10.79141563 16.11126057 9.95175087 17.34926198 7.109375 19.0546875 C4.0350743 19.97985089 1.3124268 20.36871219 -1.890625 20.0546875 C-5.10480029 18.04582794 -6.42403929 16.50686998 -7.5859375 12.890625 C-8.03236952 10.46365822 -8.21004824 8.50359899 -7.890625 6.0546875 C-5.515625 3.0546875 -5.515625 3.0546875 -2.890625 1.0546875 C-1.890625 0.0546875 -1.890625 0.0546875 0 0 Z " fill="#D2CFBB" transform="translate(152.890625,452.9453125)"/>
<path d="M0 0 C4.15132171 0.31616026 6.66810634 0.77227556 10.234375 3.0546875 C12.5467856 6.75454446 12.51491886 8.75980585 11.73828125 12.96484375 C10.79141563 16.11126057 9.95175087 17.34926198 7.109375 19.0546875 C4.0350743 19.97985089 1.3124268 20.36871219 -1.890625 20.0546875 C-5.10480029 18.04582794 -6.42403929 16.50686998 -7.5859375 12.890625 C-8.03236952 10.46365822 -8.21004824 8.50359899 -7.890625 6.0546875 C-5.515625 3.0546875 -5.515625 3.0546875 -2.890625 1.0546875 C-1.890625 0.0546875 -1.890625 0.0546875 0 0 Z " fill="#D2CFBB" transform="translate(73.890625,407.9453125)"/>
<path d="M0 0 C4.15132171 0.31616026 6.66810634 0.77227556 10.234375 3.0546875 C12.5467856 6.75454446 12.51491886 8.75980585 11.73828125 12.96484375 C10.79141563 16.11126057 9.95175087 17.34926198 7.109375 19.0546875 C4.0350743 19.97985089 1.3124268 20.36871219 -1.890625 20.0546875 C-5.10480029 18.04582794 -6.42403929 16.50686998 -7.5859375 12.890625 C-8.03236952 10.46365822 -8.21004824 8.50359899 -7.890625 6.0546875 C-5.515625 3.0546875 -5.515625 3.0546875 -2.890625 1.0546875 C-1.890625 0.0546875 -1.890625 0.0546875 0 0 Z " fill="#D2CFBB" transform="translate(148.890625,319.9453125)"/>
<path d="M0 0 C4.15132171 0.31616026 6.66810634 0.77227556 10.234375 3.0546875 C12.5467856 6.75454446 12.51491886 8.75980585 11.73828125 12.96484375 C10.79141563 16.11126057 9.95175087 17.34926198 7.109375 19.0546875 C4.0350743 19.97985089 1.3124268 20.36871219 -1.890625 20.0546875 C-5.10480029 18.04582794 -6.42403929 16.50686998 -7.5859375 12.890625 C-8.03236952 10.46365822 -8.21004824 8.50359899 -7.890625 6.0546875 C-5.515625 3.0546875 -5.515625 3.0546875 -2.890625 1.0546875 C-1.890625 0.0546875 -1.890625 0.0546875 0 0 Z " fill="#D2CFBB" transform="translate(73.890625,275.9453125)"/>
</svg>
